<?xml version="1.0" encoding="UTF-8" standalone="no"?>
<!-- Created with Inkscape (http://www.inkscape.org/) -->

<svg
   xmlns:dc="http://purl.org/dc/elements/1.1/"
   xmlns:cc="http://creativecommons.org/ns#"
   xmlns:rdf="http://www.w3.org/1999/02/22-rdf-syntax-ns#"
   xmlns:svg="http://www.w3.org/2000/svg"
   xmlns="http://www.w3.org/2000/svg"
   xmlns:sodipodi="http://sodipodi.sourceforge.net/DTD/sodipodi-0.dtd"
   xmlns:inkscape="http://www.inkscape.org/namespaces/inkscape"
   width="160"
   height="54"
   viewBox="0 0 42.333333 14.2875"
   version="1.1"
   id="svg8"
   inkscape:version="0.92.1 unknown"
   sodipodi:docname="logo.svg">
  <defs
     id="defs2" />
  <sodipodi:namedview
     id="base"
     pagecolor="#ffffff"
     bordercolor="#666666"
     borderopacity="1.0"
     inkscape:pageopacity="0.0"
     inkscape:pageshadow="2"
     inkscape:zoom="3.959798"
     inkscape:cx="94.056961"
     inkscape:cy="46.820141"
     inkscape:document-units="mm"
     inkscape:current-layer="layer1"
     showgrid="false"
     units="px"
     inkscape:window-width="1360"
     inkscape:window-height="705"
     inkscape:window-x="0"
     inkscape:window-y="30"
     inkscape:window-maximized="1" />
  <metadata
     id="metadata5">
    <rdf:RDF>
      <cc:Work
         rdf:about="">
        <dc:format>image/svg+xml</dc:format>
        <dc:type
           rdf:resource="http://purl.org/dc/dcmitype/StillImage" />
        <dc:title></dc:title>
      </cc:Work>
    </rdf:RDF>
  </metadata>
  <g
     inkscape:label="Capa 1"
     inkscape:groupmode="layer"
     id="layer1"
     transform="translate(0,-282.71249)">
    <g
       id="g8036"
       transform="matrix(0.26458333,0,0,0.26458333,-220.67134,164.01413)" />
    <g
       id="g8038"
       transform="matrix(0.26458333,0,0,0.26458333,-220.67134,164.01413)" />
    <g
       id="g8040"
       transform="matrix(0.26458333,0,0,0.26458333,-220.67134,164.01413)" />
    <g
       id="g8042"
       transform="matrix(0.26458333,0,0,0.26458333,-220.67134,164.01413)" />
    <g
       id="g8044"
       transform="matrix(0.26458333,0,0,0.26458333,-220.67134,164.01413)" />
    <g
       id="g8046"
       transform="matrix(0.26458333,0,0,0.26458333,-220.67134,164.01413)" />
    <g
       id="g8048"
       transform="matrix(0.26458333,0,0,0.26458333,-220.67134,164.01413)" />
    <g
       id="g8050"
       transform="matrix(0.26458333,0,0,0.26458333,-220.67134,164.01413)" />
    <g
       id="g8052"
       transform="matrix(0.26458333,0,0,0.26458333,-220.67134,164.01413)" />
    <g
       id="g8054"
       transform="matrix(0.26458333,0,0,0.26458333,-220.67134,164.01413)" />
    <g
       id="g8056"
       transform="matrix(0.26458333,0,0,0.26458333,-220.67134,164.01413)" />
    <g
       id="g8058"
       transform="matrix(0.26458333,0,0,0.26458333,-220.67134,164.01413)" />
    <g
       id="g8060"
       transform="matrix(0.26458333,0,0,0.26458333,-220.67134,164.01413)" />
    <g
       id="g8062"
       transform="matrix(0.26458333,0,0,0.26458333,-220.67134,164.01413)" />
    <g
       id="g8064"
       transform="matrix(0.26458333,0,0,0.26458333,-220.67134,164.01413)" />
    <circle
       style="opacity:1;fill:#b3b3b3;fill-opacity:1;stroke:none;stroke-width:1.07597125;stroke-miterlimit:4;stroke-dasharray:none;stroke-opacity:1"
       id="path8117"
       cx="5.3728766"
       cy="290.03598"
       r="5.3380985" />
    <circle
       r="5.3380985"
       cy="289.67651"
       cx="5.3728766"
       id="circle8120"
       style="opacity:1;fill:#f2f2f2;fill-opacity:1;stroke:#000000;stroke-width:0;stroke-miterlimit:4;stroke-dasharray:none;stroke-opacity:1" />
    <path
       style="fill:#e81123;fill-opacity:1;stroke-width:0.02614882"
       d="m 5.3728766,285.7635 c -1.6477671,0 -2.9863755,1.33892 -2.9864024,2.99696 0,0.0721 0.06174,0.95755 0.2780116,1.36949 0.6076214,1.40062 2.0494639,2.87323 2.5438081,3.35727 0.1544869,0.14464 0.205587,0.12438 0.3291654,0.0109 0.4840418,-0.48401 1.9467516,-1.9775 2.5543731,-3.3884 0.2574659,-0.54584 0.2674467,-1.31793 0.2674467,-1.34892 0,-1.65805 -1.3386342,-2.99696 -2.9864025,-2.99696 z m 0,1.44232 c 0.8547796,0 1.5446332,0.68986 1.5446332,1.54463 0,0.85477 -0.6898536,1.54464 -1.5446332,1.54464 -0.8547785,0 -1.5446332,-0.68987 -1.5446332,-1.54464 0,-0.85477 0.6898547,-1.54463 1.5446332,-1.54463 z m 0,0.61774 c -0.5149222,0 -0.9268912,0.41197 -0.9268912,0.92689 0,0.51492 0.411969,0.92689 0.9268912,0.92689 0.5149233,0 0.9268912,-0.41197 0.9268912,-0.92689 0,-0.51492 -0.4119679,-0.92689 -0.9268912,-0.92689 z"
       id="path8032"
       inkscape:connector-curvature="0" />
    <text
       id="text8142"
       y="292.71103"
       x="11.398849"
       style="font-style:normal;font-variant:normal;font-weight:normal;font-stretch:normal;font-size:7.04256773px;line-height:1.25;font-family:'ADAM.CG PRO';-inkscape-font-specification:'ADAM.CG PRO';letter-spacing:0px;word-spacing:0px;fill:#b3b3b3;fill-opacity:1;stroke:none;stroke-width:0.17606419;"
       xml:space="preserve"><tspan
         style="fill:#b3b3b3;fill-opacity:1;stroke-width:0.17606419;"
         y="292.71103"
         x="11.398849"
         id="tspan8140"
         sodipodi:role="line">Rodiven</tspan></text>
    <text
       xml:space="preserve"
       style="font-style:normal;font-variant:normal;font-weight:normal;font-stretch:normal;font-size:7.04256773px;line-height:1.25;font-family:'ADAM.CG PRO';-inkscape-font-specification:'ADAM.CG PRO';letter-spacing:0px;word-spacing:0px;fill:#f9f9f9;fill-opacity:1;stroke:none;stroke-width:0.17606419;"
       x="11.2377"
       y="292.23407"
       id="text8138"><tspan
         sodipodi:role="line"
         id="tspan8136"
         x="11.2377"
         y="292.23407"
         style="fill:#f9f9f9;fill-opacity:1;stroke-width:0.17606419;">Rodiven</tspan></text>
  </g>
</svg>
